<mxfile host="app.diagrams.net" modified="2023-06-21T12:10:22.075Z" agent="Mozilla/5.0 (Macintosh; Intel Mac OS X 10_15_7) AppleWebKit/537.36 (KHTML, like Gecko) Chrome/114.0.0.0 Safari/537.36" etag="7ktuwQTD9Yg_sbX7uUe1" version="21.3.2" type="github">
  <diagram name="Page-1" id="BgSObZkHohP12uPQr-Nz">
    <mxGraphModel dx="1187" dy="653" grid="1" gridSize="10" guides="1" tooltips="1" connect="1" arrows="1" fold="1" page="1" pageScale="1" pageWidth="827" pageHeight="1169" math="0" shadow="0">
      <root>
        <mxCell id="0" />
        <mxCell id="1" parent="0" />
        <mxCell id="OV_Znr3-Ib6no41af_Mi-8" style="edgeStyle=orthogonalEdgeStyle;rounded=0;orthogonalLoop=1;jettySize=auto;html=1;" parent="1" source="OV_Znr3-Ib6no41af_Mi-1" target="OV_Znr3-Ib6no41af_Mi-2" edge="1">
          <mxGeometry relative="1" as="geometry" />
        </mxCell>
        <mxCell id="OV_Znr3-Ib6no41af_Mi-1" value="" style="verticalLabelPosition=bottom;html=1;verticalAlign=top;align=center;strokeColor=none;fillColor=#00BEF2;shape=mxgraph.azure.bitbucket_code_source;" parent="1" vertex="1">
          <mxGeometry x="160" y="300" width="42.5" height="50" as="geometry" />
        </mxCell>
        <mxCell id="OV_Znr3-Ib6no41af_Mi-9" style="edgeStyle=orthogonalEdgeStyle;rounded=0;orthogonalLoop=1;jettySize=auto;html=1;entryX=0;entryY=0.5;entryDx=0;entryDy=0;" parent="1" source="OV_Znr3-Ib6no41af_Mi-2" edge="1" target="n2p-AHsxfCAG3eh7q10w-2">
          <mxGeometry relative="1" as="geometry">
            <mxPoint x="450" y="325" as="targetPoint" />
          </mxGeometry>
        </mxCell>
        <mxCell id="OV_Znr3-Ib6no41af_Mi-2" value="" style="shape=image;verticalLabelPosition=bottom;labelBackgroundColor=default;verticalAlign=top;aspect=fixed;imageAspect=0;image=data:image/png,iVBORw0KGgoAAAANSUhEUgAAAOEAAADhCAMAAAAJbSJIAAABNVBMVEX///8AAAD11LjjKjgpUWDnKjlta23z8/P8/Pz517shISHiKjjY2Ni3t7f107f82r1zsMKWlpa9vb3/LEE6c4ji4uLR0dEkHyDt7e0qKir6488KAACFhYU+Pj7h3dwkHBygoKAAHh7nyK7IyMgTCw0qJSbRtZ4oSFUzZHdVVVViYmIcFRf43cbWuaEAAAraKTfHKDR5dnesrKxMTEytlYMUHR45NTaSJCy6JzJtIigjFxU8eY8kJiqPj486Ojp+fn5lW1Wch3d+bWG6oY1QISVJPzpDICPkzrtEOzdxYlgSHx/BKDNXS0SkJi8ACxE0XW54IykyICJbhZJfIiY3RUomOUKwn5LEsqOMfnSfj4O+q53/79kuFRpIHyJyIiiJJCwOKCwYOUFXfoo+UVlmm6sAEg9IYms8mEF/AAASoUlEQVR4nO2dC1vaSNvHHTUHIpCChoCBJMIEJKMoYOIJBFFUKGpdl67dbuu+Pez3/wjvTA4QBLa2ax9Cr/yvXi2QAPPjvuc+zAS6sBAoUKBAgQIFChQoUKBAgQIFChQoUKBAgQIFChQoUKBAgX6CWCGhNvQill6O5QR21uN5aQmqrgEJugJisS7MekwvqYgOJCSiEjCbrVazjUAJIgjo8KzH9UJiVQCgKCLQfrv+/v36Ov7r8s8HEyAEysysB/cCYiMnAOk0KrX/XB/RHx1sx8z8u2qiCFLlXJxWHrZssC2sENHW1nYTwdSce2qyAWA6Iati+4/3Fl5oMRqNLjoKhfYQ0hKzHuR/UVwEekKuVMGDjTdgcxTl8xCJc2zFGFBiQrxcBW8J4BgfEZ9HKDW3c7ECtIhcoXWNAG5NwLMQsaNm5jT7ywgSQNp89y+Ai6GtByjVZz3WH1MZxJKVIl1tDgCji2OeurX+fr2JwFxORUEzVRNIErjEgAQsitPF5RY/Srj+VoOmiOhZj/YHJOhIBJqergOc6B1zvb3SUnuhkVn4J0AlUu/MX7ARNJzp0rlwIoIzhWXCrfVOqSSKV9kRwndn2/kHDUnqrAf83dIhysTlSoOmxZZtwvUmuNrLb+efBBosPmvC4qwH/L3KAVQN52idJoTW1Nt6CzpRHvNMiqdZbe5yYgOKiQhtCT3wVphpt6OT6GxnPQW5WQ/5+8QUYTlRtgmBHVuyID8VcDGUn7eJmExJqmoD6mDbJttz80T2KWk2G8pezVm+EJAUcUxYFJ0k73BFQ6cOYpR3DYjhe9VZj/n7FIGwYgPikmbUYFvrf7YswmjU/ndx6xLxfEec9Zi/SyoSoeOkdOYhNAq4vo5sI0bb1szEj7TP+A6c9aC/R6okijDmEJqn3jqNVG7rLdt4oVYnZD/yrs23gDrrYT9fFWBcXMA6XSySdGjujVaiGCiLTgli6MwKrzhD5sHZAwSVWQ/8uYoA45y6NzIKhFAr0pkRGy5m81k86UqWf/KoHV3keyUAwOkpFEFk1kN/nnLIuFil7jiImp0rqBSLvZHEtwdQCpeseceIrRB/ilDvjD+FFxyai6yfNI07avWNATuXZMZBjUZZL+F2E/OZdhEQDTVLe3w0m43ymPD1HTKTsx7+M1SE3C42IWquX757i6Mk0ksjtUxocTufd3N+aNsk1gyRsu2GOuDmof6ugI3r1dUdTrxc1wC4WnwHU6XRibjoLb75M6BZuPwDpKj9Df9HGwF0P66urh587b3/I9+70jrbAGhn0+vRRX4PXBFEvvUXtbR0aAC/txg0FKnVVerga+f91vZVNl/azm9P7yisqfgAerhw5Tvn1BK1I0Kfl6dxifgoRR0Yzfdb+R7P48FP5XNW33C0afKL0d4htiF13ZXis4b4N7FVdId9dIXavbtax1GTD21np/HhzG+tbeCUUerwoezJPiZcwiGq6ue104jUfY1NiEf6wfiDj+LefrqDRi/X7dINN79noVC+e2ARHhiSn/N+xjjHgCt4oI9fO1uL0+1HLPeOt/jyHdDLEkO+JoRL1LmRmTXGdOUgMaE1zl3OyYLTpmFor7nI89l8B2p70VCI7/y1s2Q987oL/VvZlKFjQjzQj4a5TZadzvYmI4bypWarc1XSTnGZmj3lT+4tEy4t7XyA5VmDTBMLuvs4zNim2BENPPhsCzTHNyxwjYat1jKveqdn+Hb0oZTPd/cdQuqxC/waayqgSzkmtPzUuAGg1L7cGt2p2NoK5cmyKUbDCmXPWiXwwD/c7LqEu4ZvC5vyzb09C52RHhpdEV6ujxLiHMHze6ikmVdX7XYzryFYai3y3Icd94kr9zc+dVPG7F67TmohLu3ud0u4wXhCmO3k+e2WCUukfcyXSqnTKH9WekMNnrdvmP68QCMMNnYGTmqPleqW3F2ZQerfWjxt8ySKnraaveb26VkWZ43e19dDwtcbPt1rUyXD46T2YM9vWu+txB7Kt9yYGuUfetu8oxCOObjBKJ17n8X5dHWYTMMRExKH67Yv7c3RUG+4XMNflZp7+fw2UZZsWlxtDE2In+XTicgWv+6PEe6IN3/YbhrKi4NGOJRtl0pIwxI13FaEWjeHlPdZj1+LfswXSbN7sEotjYrav+msO/XngxYdIp62U5pmtlukwT9D4usRwmvDl6sZsmjsrq48IVxa+cBduhcp9HrDQpwnqzP4bwwYNZ8SHhiiPGucCUpIxs44IfXRjTXYcmZvvBkOLTaRwnE73nm4a0h+DKYJwFFPpiFOF9d3InCNiCNKe/vJdQr8dhMqfYW781iR2uGAHy8EiwPu6TQkZY2ooOa62+tut7Uz7/UmuOTGLrq8VlA45Xr4ZEzox0afEI7yrTyKhlKrKaUHJ9hgog7o5O21Nvx3dO+qJIqFtbW1whFn7A8R/UooegmJg3aPastrx/2j0tXbLSu7b+/t9VCpfZrPRrP5vQ7EfCInKptrx4UjcWNQuFG+JfRMJer1eVfBfER9BUFw1Tk92xNvbgxOFCHCKpUAMkWj++GDUcOIy4rYfeNvL80BzhMrHkVOKazZ2qwhPVEv60UkPu4f3nUxY6/X7rXOzrSN+93V1UOjsLm2dlsTu85cxIR+bPMTkhvysQEv8AS8dQBvlws1VCcp3CCLxdTBuWH09rK4oUgZuBlZXT0w+su3a8ebomGXNri1lPwYS8PIOHAG+KbLHTkG3LxdJipApRxJAAtodXX3YuMGnZzc3FO4VF9Z2r3r41M2jwvGR8rJ+MiP+VAwDcvJqMcNYsBji295oD6SwMbB6goRtXrwkdu/vvuwskJqhJ0LQri8WXBWMkjV5se1fab6lQyQeo2DY3/tCZ/FWMMdhLuKs487revuo5XnqXOLcLlm2CsZ1P7Xqi9bYNrqELCL2SHmdnlMxIY24PU9t0vtcyuUl5A7d/gPb/y5eVGHd5YNRYUkiXG+5eW/r92VOIq6ONz/S9mhiFYuCtZcNR6dSHUH/XnJcA5skGBKXYi148mE//folubUwREwylXw4c3+9cE+ZxH2Nxwn3dnwZbLADaJi5TPq0VBuJzrpcuGDu2J4jeh4WJbrptH9vQ85e57eOSa87ip+bA9xk6/fHC7ZbloYCzOOm9qRZekRQVqWmbCQu/vt1avftBo5aLhV2+GN7scWf4EsRSnETVfOOXHaRDzE025p97776bOkMjkQTmpfXmHEowKZhk463bnz6UIU2eHesNx0v3t0O5mwcLeDw+jX/pdXX0RNYCKsTfgPiaV90YlC1xv+3ekuGvd2A0vcdGQi9p1/axsbXfgPhnr1CaRZUiZgwi+Wk3bd1ah7w78XZEQkzppoh1xtlLCgONOyUOsrn19ZMk1ZqAgnmPD3vpUr7LIbVww+3iJlNcPejN842hwJNX3x2AXuW35JJh9QY0D+Hd+o2ZHUrtupQ0PzaZwhikmildNw0j8eIawN7romfPWqVpWTOXwvZWXDQV8hSrFZY/yLkqZxb6fE/rE31BQGhIWjo8+OET9JlYX4ZzvMLPe7TiS99+da6UAq7h8oUpvWRoJpoT+wYV8ZMNaKjPrpi2g9zF1YFdzO9Qb06+ahLaaKyEbgDsdtekONhxDfFo9Ei/Gfo5z+2+9OTfqGbMbdXygi8jfhQhx0cf1MXSi3x1MIyT1sx98/vfqCyuY/tWXHSQ/uua4BTQ36Nt87KkPugMIBcXmUaSTwEEblSPlsoproZBPlA8YDZoQVaAn6eiIusAjhuH/d9cy82qiXWurXRFHBf2r9Wq1GbiFg1u2lCxr4OZguWJcIny/hUDMMpphBW7st9PuYBqMgRH40Av8jYikEDiIR6jmcBRmBIdsD5qwZviEVGh9fK8NgWqhhCg5BCUDNrBZ1uoxF68VMChNiZlRM6xKNPTNcLicIZsaXuxZeNaTu4R0Opo4Fj4g3KiYdiyfCSc/6C5Mrw821tT5Oi4yiJ9k6UO1ipgH82eJ7REucKDqEtxjieLM2wSqsrErHa8cF8i3nNJKTuNMIW01FBfhzIcorXRJxunC89HZzc/PvCav0jFzBhGsFSLM4yeCPoKzT6RjxViD5tn1yxdJoNCH+PSGNM3IcbN4uF1CGWUiCCLvgFtyC6MttiycqouURwgkJgJFzwMqFCNsNxNiFhKrGcTBl5eI8fLWkDAtewv6EBVBGTtiEQF5YQGmWjUQilUoOP077dK1tRGlplPBq/BRMKJFjCul4T8pCMskwDMsyArahv6saSzGpfzwEXC5I46dgQkTKbhHWk3KGlh2F5QTM+D6WjhEuT7AKJlQIIYdoQa5W4/FKrF6PJWQ57f98uEBWFmsjq20TZhYmNAlhDVVVGgIAJFzdqDk5hvy71uZRBShi30N4o46dwsrhDDkF120gU69EaEDHYnVaA769gHZEAoSKwg0Z/06PnYIJi32ry0BWxcOWq6IElGpjDgIpUUJXMGPNZeyPL9SzslxGIlJEUtRYYpJYcxBkXMn1lMVobyxpYyPHhA10omtSxcerh99QMgYkxYIsFCZEDxw1cY6ozkVcmSpWNQFEmFKRxsOHTVj2fTf4DbHxRgYBAGFj7JAs13VZjs1H6PxXMYIgqNL4Zb+CHCuGcYMxHmbnUUmojU23pByrhuXwHPS7z1JmvOdLymomLMumz1cPnysVjF1/z8hqKkyCqR8vgPp+4Ybh6UOsXFESibj5ixAymbFr1Vg5LhUzEGq/hpculMeyAoubfJxIqr+GCclS9tiPCMkyUCK/RiAlSmZGu2A2KcuCOYc/tTddaSlTrshJxsr8mC+Ri9dTv0iUsYUnHZSAWKUb9Xq6TOtVTYIT6oB5lpoBQJIk4FHxVzIhEZuoxLD9sBrpulrJ/SJpIlCgQIECBQo0LnZyN8HM77qwI7ZSb9B6sVo9mbQ7WMmkTupzzphMucUoN06oWgfKM0VM1GMe/cjHLeToaYSMwz7T1W8VjOjHOvPqFMKw86rqfxzkfxIrqEXXy+q5H1x6UKcQJp1XnvXOIesg/vgqfGTaPEzb3eLMQ03MJvzxnZSphBYiPftFKYfwxy9Ymk6IA9HMDbjwkwl9oSmEzL+UI6MFzI8QTiqBWGfB7sXNPoGQiTT0arVI12X3vRkhEa+o9ToeWFKli1W9MVxt8hAKOVeM+5xYQ/C+QjqJX75SJq/gzZNsvIErI/yOYab84t9THCe0wj+dsQKhMHjAUnh4e3BhooewPDgxVxncJBtwOc8rRNybww3kyKA0AhxAL+3vTwkF8m7kv2pSB4+H09A+CYb1wVCAOk4oVKzjqJ5YCDegh1BIuwxyY/gK7nVg1kMN/AKCVSD9ZEIL0Kq0GNP50LGSJzahCehK3M5zIJUcIyRfPsHo9k1GHxKS33m1750AvRKvO/TJwXMAsF+s8vMJrYHYW9R2xal7MJwCJea5PUqIK/HiYMFb8BI6HM4bOT5sJWG75uCGw/m5hPZb2zu7jq2sN0x4zxKQ1009hBjQW76PEIY9UO4h632ScOgrC2Tn/OcScp4J4j3iENrDYG2fTT8lFJ78QMskQsH7PtZFxm79GrMPxV88s44QyvadOpMUhGQdDE01SpiZSJjgnrRKkwgdU6WGhMwgkKZiuZ9RA40QOrkAcsiNhE5a+DYhmyN2SXl3LZ5HuOCJruAk9mIWZNyiZYTQMZuuepR4FmHKiUXeq6SeSSgAr17q//ckEaUqTCNUx87/JuFAntLhmYSeesDSi+w+OtGaeUro3BlvFr9NWHadbeinzyVcSNJeQv0lCDNDrJh3HM5ox79I8YxIw9oVAhj+tMDzCJPEZklVRy4h9wJGFOxgbSWnutc1nMidGtvlfE4sdZ1t0Ew/jzDtWD0Zd0vCFyQk2ctexThxQpjHuI7050UaksXST0b4PELP9/YiL0bolJzE4Z01P9U54tRWqUHM1oH1o//PInQqgcHSzHNtOLx2ozrZg35AVptjNWL2NBx+hdXxFNN+03AV2BcZTiJsPCV0z3I+L3bEaacS4mky+E8Ei55P7r9JcD9pZ3hDv3A7AlCsq6oOAWcNiXVmq111hjnPs1jdA+I2iBFynhOw7aTkRrQG64FPkRlAqowTuxZi4UuZ0EpBXD1esaN00ev4jDubhocY2l1VBdXKQpg23Xt6QqAzg1PV4To3qKYbg1YS6kKyMXiFjIqTw+BJeg5/EISrITBMmJx08lLXcgiDtzSfLtGEB616xp5Dbm1MVB60QZatEp47ZFoPlgCg5wBICCOnhT33VEwYyw3yYeolrw9nImSzojLxIwtHKmol/r9ZPmOsJcdwRP2fvWOgQIECBQoUKFCgQIECBQoUKFCgQIECBQoUKFCgQIECBQoUKFCgQIECBQr0svp/IT99ghCKPCwAAAAASUVORK5CYII=;" parent="1" vertex="1">
          <mxGeometry x="340" y="283" width="84" height="84" as="geometry" />
        </mxCell>
        <mxCell id="OV_Znr3-Ib6no41af_Mi-3" value="" style="shape=image;verticalLabelPosition=bottom;labelBackgroundColor=default;verticalAlign=top;aspect=fixed;imageAspect=0;image=data:image/png,iVBORw0KGgoAAAANSUhEUgAAAQMAAADCCAMAAAB6zFdcAAAAolBMVEX///8AAABBv0fr6+ufn5+Pj491dXVAv0ZDv0k9vkMuuzU6vUA2vD3s+e3g8+DX8th1znj5/Pnw+fDP68++5r9vzHP1+/Xc890puTAxujhIwU6W2Zm8575PxFXn9+ghuCpcyGFnymuw47KN15BjyWd90YHJ7cuo36qF1Im05LZXxlyO15Fzznd/04Kj36aZ2pyEhIR2dnYAtAUStR1ZWVlJSUmf+l5eAAAVH0lEQVR4nO1d6XqjupbNpQehAcxgg8QMNhjjBPqedL//q7WEmTwlBuxUzndYP+qrchksLbb2pL3F278WvP3pAfwCLBwsHAgsHNQc/M9//BPx32cc/NfbPxH/Xjh4W+Rg4UBg4WDhQGDhYOFAYOFg4UBg4WDhQGDhYOFAYOFg4UBg4WDhQGDhYOFAYOFg4UBg4WDhQGDhYOFAYBQHlm0Ghv4zA/tBjOBAz6KQIaJ5xqsHZSjWq39iiBEcmJhKkgRoePyaBH2mqFjrdJNmM+6hK+Oe0uMcKBUknANJZmD/xW/o+/QjLdVRgziHWoQojM2JV+urMn/XkjEsPM6BsSdIqsEc+/4Q1oQvmDBWRozhArYPJRx50y4OckARQ1QbsZpGrIWgkikWgoDwFw/JdkIsoS9Y+hZKTlGYT5MkoyQMyJJMnREPYYxd0JWjjxjAdPfVAM1thFE+R2/acbRdTbzUqdcrZO+vkQOBVepTmtpfKyxlv5+p1ydfvmJEliUSbsbI4VgfyVolhxlr/dVQjvTzM3TyUWI02U+0AlsNvnheVhBMNm/WdDHibtzK/mpcNzCVAzVHYUiqu4pB2Ya0migwivs+Q6WOx0QOFIdCrnpC53CbcisJMZyq3NefYTmaPl0Z+fR7TOQgQFQWTiOTgpv/b2sESBAdpywHwyUkHysIh494px2mrb6JHFilhAAngeDbJkBNGRD/m0wYlV0QshnnJgY5QYhRuZwkClP1gW5HCNfTzLrPrNV61cxZ95AggfnJ+CFlCGJ5lJuoFmJl8p+7I5XfYHr+wCgBwzIgUfvIlIqGYSuOxl6m3GOjxWhnR4gQDMdwxxdP7b9yz2iSazYnh7JyAYUAtSR4f2EZs3X7v0EVEwqRP9Lx1/f8mUI6QqqtwymYY2E+SQzm5ZGs9SYkAPmn5WC/f4afrF8ab8HhAzIme6N0QiYLbcrSx+Wn9o8BC4v9RFs8M5emJD7DDBxqGVTW+8Q8e35G6TPmjDB0xt5nwt5gsH/0EnvDIGZsk0yO12fnE9UUMhJ+3JFCPYGYoHR1RxR0y6hhWTr/a2AmcR2ZchLC9MHFsNogHirmqxkRyvycqnXwKaHxncSPkYdcsovyiiNdNb1D6W5zjq3rlqWbc/3BpAbEWd+63RVULaT4/R7Hj+EZeeWgRIyx99sm3Sv4kyXUd81+nEbmprFPwpCiE6gAIkDqEV75y4Z69az1gx+Gw7yb/bFJR2egnpNbzwpKkLPt130/KvVIgVBZTI7S/TrLvOoj8h3GZwwlWW4mLMvdX1sApJ0/3MyXL/WklTMeswxEzC5CSsdaomftLwQfmBHmVKaiCzEv/ap9ZnoS1o8X8C9gCCDXD4RgIH0LiD66Ra4HWc5oeO51Wus4DP3hGtS9TyLDz/zPcMB/PuLqGdG4OiSuTynrJNILuwkDAAF4YPoNEMsTb52tvYNbhEiCxB26QOYWhUgTC8YwsyarY0d8CPBhk/JkDkSYxLAECPcVEebjfW8WRisHUwCRuJn4Q6gKiHe9irASnyuhoyoSybnMovL0X8o+zUen5Z+412YkDuumi9uHZqdoMgcCA8GBqHW3jEPE+IpyxVpZORQDEr5PzEA+l4M3fe0j2A6YoJPHWM2j4IwOEol76oa3gwwSVgqWs6Imnkjur+CgjndwN2BHCKUnkfFz5W4fExpUujAW/J7uYZ/L3KYA5ojwTDcjHpnJEqZTItSXcPBmHHE3Z7YzhUVD13OsbQPhE7nFAKbM38VxXPiY1hZ0CK4hKIPiSyfdkO2QxNUgc3aH6YN+9t67nuBWKQAqMiGJfCYIgPBZELmIosKXubmrZ3Q2SfhRcgurG2qWuLkWEe4HXnKFKdjWXoEXcRfV0fIym7Of8fz6A3MXtmOlPKy2Dt3y4NaC0l3lZStbDYJAtc3M22uAc4IbkQAIn8cWerDKyoJS3MsMgCF0awVo7TFFxcGeu0n9ghoM+yOErSRw+62XITmtcoSKZHWR+dQV20w0FvLljwkLoxsPlPNQcv+g9bBCXJ1mbeT4U3Ln7O42eEUdSpAi3JIQcRLWDoIyY35+74npxsrdFUW0ze49UsuuIl/CWC7e1yeWdO4l0uM3O16P4SW1OGpOO0nYcXNmxvTT2X7zxKxvlrSuevukJclaH1kIy+fUxLymHknpSIBMpNqUZBg2zoSuZO67xJXpV2UQY/CimizFbb0lgPz1E0uYdGX9wd0jBiF9khS8wDYaVj00rhNao4dA9t1VA1jqanU3NWrYZVErRx6MT9zEuoGncmCZ+73XKL7goyOBkId3HoNSgyGNqlupMX73DWusJMDy1GKdazyPA2u9jeW0L1oL4s79wXTzUESjljvKmeMRkH9ZhKGbrubQLvaAzH1eddxzONCt7BjjzygZPr6V35EAaXHX7HX3UKuCtY41Y84248tKF7lWw062O5+hztfirKIx6+sbPIMDPnoezIfOZTHYKqLdoAndZF8tCMNMGRo4xYB7TMxP8zSNJVRHUGceNY6fpg2ewoG69xFm3C++1NP6oegDJsCwlt1TdqqXoovAQWrSbtx/hPAy+YTh3GqfIWZzYFQF94WRU95anweJDSbFfeXj4YoGyyxTP2S3swx3Um8E9+rCmO15zOUg0BCfJpJub/3r27PYFzAKo/ey34vS7cNH7DOKb030PgApeiqttebNE4qZHGSRsIBE3ncU6LY5WKrKlp4/SMgYdvwiijXtfVf4DuD/Hp1ownhoFYwj2c1yw+ZxcKIAoj6BoezlajieQKOXUwQQ42al86U+dv4CDJ9ZBdWh4Yc5XRZmcWCkIkoGNO80vp2G8bnVynZXJMzGRa2FEmNI/elachYHibBYABftrHUzouhy19x+OgnEqc7mq6RcnBg9Tq2bnMWBKzJGEHXxm10gSDaX3ku2Q5Mk/h7k0D93DrgciKoglrfMKONqMeZwoNcc9C5bkHIbD1B1oZ90+52R54kCQNFFVUdTpMxAa5yCalRFymw5ANhphT+rvVl0XVOmVM5Y83cPMkbOxZ5qvRQE0K5dDdVf0Ygtl1kceDIBoHNbjX3t6kG0ufaDsg9En7EgMGXaRWGCvqdN5pr57cQTiorHzeUsDvRtyDloK/mD/OQQQaTdcOazLQlnyQIAkH061aVXGLhdKMG6bE1CIZMfJmGef7DSKMSgYV+pGqcQouvYQfjEFQgRvr2x8h147IBC9H64KjhR8z5138tBGXKftHg0rJrpJ65SzFqdqK+7dDKTjjeKbXXFzH2He4qCq8uai5uQZR4i8gASy05UZupVSBKU0cDmsFYfKNtQxJaPZprmxgsKf7jbZv2rw6yJf7uvy1ITLS4kROlpQ/E2FbIsA0gY/xaCfrTTSvNWRBasI9obHJnB1l4cCq4hZEIfLEiZHTfykIU0WkrPQL+vRuiuulMqpdtetU03O4eFYUhFTRIXjRpirxUhGorPgb97T49ukqm37xIkGzKMNjFL20Lhj/D0wc1Y9hpPyB9YWdvGoGeDCgSJILDbX9dRtTAU28wy77B3j3mebmq8p3l+rPaH9TrLVur9Tk9dWWsOYrCXIkBY6yfq+9OjwOTBxfCUXFo/2MwZmEDAIyM59YJvWkLrGsVAOaGuVfz61yzFrHx+66GthUjatj8j9qJPHHy3rdPg2bn14CixwUazqNDEm9JbPakHyrKzMpUROTcvkOK0zVfq6zZ5hcnPrYULeKl07hRCFlJfO5Z3M2kPwlgd3Dxi4VX0gVh86MvgYJu6+jmdeGOsWSpxd2j4oICw7n78sd1nqqWPzXfoVmAmx49NgS/qOMWdIaKbftNNcUH7DUAe7Yp6yV6bpe59epUfEoaeCzGEUV6uV0IB1HXKN2ddp9QVJbCz/TGW+UX1tdfZGELBcdVLvLlDA4/p0X6gF+036kr2TtD1sNscEkPcvfM3uVseuAkw7R6rVZatD2V11CIHn6ymyDdde5eCFhTtB/UMViL3yWmGH+4ZeN05GLqx3m58dllsUzMh8sVQFF2IUmXhDYSfDep/iDrmWmREWvmWbw0IRc4uPyiDaSpJ3AckkPmPt1K99iwQ3SzzGH+G7KtoSb7EF9+VhOsThihKq/OKFSXZsH4zA/Ow8fFRvvw8FD3IElfzEUW1LpicSwH8YuE+Iyd2E+/cd9SDcof7OkiAyKie8Z85E8ZS1CxJfc4C6baOHp56l4Qm4L3M7CuXKzBz0tfwcceMauPKdX/uXBzRqGJ7ZRr7jsN9J4bqOKFReWeo1WYdOXAQCGTHj1J3bSvGtQtp2V7MVU6/H41gfKf39i7+xNlAlmJnXulut9tc28RxVHBWhB6AJ9Xg+DxUjDdamm+3x/KQmXebeBXP1XA4jNNI7I4v0/qz5yPphiLKFHnstObwxB/cVGbmSg2Cb87G0dVDuoO08QcAN5VhGG2vtzMfwN/xjChDUdfHnQ8YDxzlxuVAeFfei7K/w9+MAytYZYkoSBE1nXWKiXH/yYnL1cjzgIZ4BgdGj/pB6Ioydzv8CrqlZl6yz4vwr78+68wL9zmcoog2lWff0JVj8AQOjDjanRAVtYuupv7mwz2snlcxVJeyemXlHt2qqsqy3O8Tb21eJxgn4QkcKCysk2CM0bB2TdRNiCgDflHs8jpQfMpIX4dncABZ495icuJAQ6cmhaYRw99px1JUq9s2V/e/j5FncIBvcdB4bSI4qiM8Hhp9hkgubu2//GG8TA6unN46WCRs96PHvTyEF3NQG+8G3AmGBE6uEngdXrsWTkuhB/j6zL0/hNfKAdusgwv86OmQj+G1cnCjFuEX4rVy8Ac4sA6jle4f4UC3DHXfKAbL3B/TfFC3+WaJtr6yKpPsvhPM72Cb6wP3FjN1+CXDjMPd2HLuH18LuhXYiSZDWvepWtlO5FAww23FhJFtHdxaEyk+3FAgumFXkQRhY21AkXuqwoMVRT3E/E70Y6Ta/Wk5MA47WvfpQRIpb+Y7j3+F50Cck+ukun7ITgnl2qIQSjeH8ylZq6PM71CbmZPVIQSFyIl8LEo8xClu+Tj7+9NyYHmE1N+WEbEPfrND2xTfGkkRXrZHA0q1YYJUPcJbNT0A9nsZGG5/Op84Th+oTjNLAo7dTj2rLww+BunxQcs/HRx2YWqUDXbcr8kQH346oxzyF3NwfVCMsus2BPtiZbEu3tSY9slhjAd7ywy6DQl20RW9Ni7oMEF9+ojRkcXLr/aRvOE2mjhZU0lxN1Pp1K9CmDjwLti1O1KAEGmnbYq+xIBJp6pw5b3bdMaM+Ls4cnB/2oDk+xA7u2psA/iL40bIUI/PDX/aVgX65QwQiTaaVkTqm7FtJwNIkSiWbumZ1pGATqc/JO1CAtg52pYA15CNIhBHRBjWtyUcr+HgobiRg2qGaPDpi5YwjfciFa5mup7BbnpdDbiSt2epABYLGYpaBYJJt51oJaQjb/fj5+a1I/1CDm5wsO44wLDveww27RIhsO+JMYtW2TNxqkYA0OmXIB6YPyVvFQsjk45p/3k5WLeng2A4cOjMtuBWYnjQp5N0LcPi1GjbYd2l/WT1TO7uWE0RhB/kQL7ggODBUT9lJ9B4KNBZ3zHMTYcts1ZWhi6D2XIAsTYlO/GjOjEOzuRg0Jym7lqhx/KwQWOF+2LkzFJ7ORi0cVmejFsOJp1x/lo5gP4m1TrEpXGPgxVs50r8YYucHbWmATulpfT64L33ggb8wUmHyr5WDtgmG2zA1DuIdzhAPQdDvRZorarE0lYx4na2kLjNMd66nXfXMjIpVP9xX/k2B1nnIjJ/WPMepK0cQKgFb5nfFt5B5JfmarXKXKlvBCebP2Ybn8DBGn3HASBcm1hHRJrfAhhRUc3Ul78BNP4Q3xo/nz+4xYH+PQcQi/YY7mUOzh47awSGqJj4EpdfIgfZgIPsNgcgFX6DlRXXhaqnUk1tat7ud8jBXZ2oxp1dkJudiSBzd1Ifejbd8VBbT964+CVysOqiI+IPaytXfv9508iqmEnqNJ/V1fuO78f76S97+DUcqFHvI7kDG292FZ6sqPWElb2T5qAAgpw88Q7e1PKTDr9kLRhV6ytDuLnrK3MKPmjzCcD+9YHF0/BL5IA7CF3MBPuFbZSsMwuik1cvSWsbYfibzkd6hhy8BZ0LSHDfmJj5fews7mTE/W4ueU8O3qmQzTRX6owXpP0WOdDXfQ6l69Md5lA2Yo4DDkQ1YtiWe4smEXeyYfgtHLwpWif2pKk0tfNOI9JdfSNjMzhfZQhxNCV5/9l3kQzxHA7e1KKdH2C42KRpLPfpxOb0df3skJlzyBDd6LR+BL+Hg7dVnzdvSrvbhYDkVv8ZKUN1yfdpJ+ri1ByIJh2b9IzzkUDDAcCnV9VN5OBN3bD+KQ/2WNjgDUiWmdcFztLJPxSF3YPmCEi0CZLwBA5WbSdZ2wL/DQdNTlW+4kC8soJeyjqkTLvYSDZUc53sy7JyK1eUfRd9pxcJR/RutJjPge61Gh3C0/ET6uYTnQoWP69fRal7jJ4aexG6DnXtIw+J8EAEQvSefKPvDbNy+tzKyP1WgfkcKH2qp8nyKfv8eEK+v1qfepa+15m1VLtZpqdkVcROL2agVNYOg1MEdTtJDgJJciHxq6ITRX98DmE+B6vuAGUCm0Sx1ePaWukX1c1XsBTVzrzDwTPV854VZVN3fTASkgv2rD7Elv4AB2ZBur2fb152OxdtWhkw50IOrGObk8Xw5zmw4z77Ib+4/NJudxsZuODAiJtNuMEJNY9jHgeWF3WpLeaMexHTePTbC8Q903zKUep2GDbjPYQ5HBjmexftAQQmeqqPI4jaX4Nsk53eOC7Ku9b9gSAYTRjFHA7WxWd/WKj/tFD2Lqz+CBxIWLRNPM9LqtQZNIKzCUth3lpYOyfvFlC8/YlCRGU3aBzG9ZkhFLFBJcp5QvZRzNMH60gcnMfC+PAzVcjm7qvztiAa+W64BjPtgqlxXybePymp9T1sDbLbLbIAsiun+kHMtY3q9jjnVWmjYWUxj5REe0xzrpDcnKFESLyeOJDZPtLoUy3mwlrlkS+T0+vNTm85Y5K/c6cfpPk3629sIJrcyqo6bo9HtypLb14L3d+Tgwb6c4Twb83Bk7BwsHAgsHCwcCCwcLBwILBwsHAgsHCwcCCwcLBwILBwsHAgsHCwcCCwcLBwILBwsHAgsHCwcCCwcLBwILBw8Pb27zMO/vc//4n4vzMO/vFYOFg4EFg4+Ne//h/eyRgUibTvNgAAAABJRU5ErkJggg==;" parent="1" vertex="1">
          <mxGeometry x="470" y="152.43" width="93.46" height="70" as="geometry" />
        </mxCell>
        <mxCell id="n2p-AHsxfCAG3eh7q10w-4" style="edgeStyle=orthogonalEdgeStyle;rounded=0;orthogonalLoop=1;jettySize=auto;html=1;entryX=0.5;entryY=0;entryDx=0;entryDy=0;" edge="1" parent="1" source="OV_Znr3-Ib6no41af_Mi-4" target="n2p-AHsxfCAG3eh7q10w-2">
          <mxGeometry relative="1" as="geometry" />
        </mxCell>
        <mxCell id="OV_Znr3-Ib6no41af_Mi-4" value="" style="image;aspect=fixed;html=1;points=[];align=center;fontSize=12;image=img/lib/azure2/containers/Container_Registries.svg;" parent="1" vertex="1">
          <mxGeometry x="640" y="150" width="83.46" height="74.87" as="geometry" />
        </mxCell>
        <mxCell id="OV_Znr3-Ib6no41af_Mi-7" style="edgeStyle=orthogonalEdgeStyle;rounded=0;orthogonalLoop=1;jettySize=auto;html=1;" parent="1" source="OV_Znr3-Ib6no41af_Mi-5" edge="1">
          <mxGeometry relative="1" as="geometry">
            <mxPoint x="180" y="370" as="targetPoint" />
          </mxGeometry>
        </mxCell>
        <mxCell id="OV_Znr3-Ib6no41af_Mi-5" value="" style="image;html=1;image=img/lib/clip_art/computers/Laptop_128x128.png" parent="1" vertex="1">
          <mxGeometry x="70" y="410" width="80" height="80" as="geometry" />
        </mxCell>
        <mxCell id="OV_Znr3-Ib6no41af_Mi-12" value="&lt;b&gt;&lt;font style=&quot;font-size: 17px;&quot;&gt;Deploy Pipeline&amp;nbsp;&lt;/font&gt;&lt;/b&gt;" style="text;strokeColor=none;align=center;fillColor=none;html=1;verticalAlign=middle;whiteSpace=wrap;rounded=0;" parent="1" vertex="1">
          <mxGeometry x="310" y="110" width="180" height="30" as="geometry" />
        </mxCell>
        <mxCell id="n2p-AHsxfCAG3eh7q10w-2" value="" style="shape=image;verticalLabelPosition=bottom;labelBackgroundColor=default;verticalAlign=top;aspect=fixed;imageAspect=0;image=data:image/png,iVBORw0KGgoAAAANSUhEUgAAASYAAACsCAMAAADhRvHiAAAA7VBMVEX///+BS5kAAAD59/rk2On8+vyYaKyDSZuVZ6mBSpquj7eBSJrm2+nVxtvOvdNtMIDu5/H28fe4nMCSYKeQXKh5QIm1nL1lHnjDrMpjE3iUaaHNudN0M4VfGXNqKH3Zy93p6emIW5aHVpWeeKjMzMx3Q4emhrCdc7Cogri7mcbCqs66ncPi4uJISEiYaqW9vb2dnZ0mJiZ1dXUaGhozMzOSkpLFxcVxcXFQUFDW1tZmZmYQEBA7Ozurq6uJiYkcHBxcXFyacqbKtNSiebRvLoOATY+tjb2hfqxzKIZwN4GSWquLVppcEHCFRqCRZJ/JtDEvAAAU5UlEQVR4nO2dC3uiOhOAFaQWFQGr1aNbQaWttbgoXioqXtq1Hvfi//8530wCiq0X7J5t137MeU7LVjJMXiaTBCckFHo3kSUJfkqPEZl7mwJWkuEnV1PequDvFy4h3MxScBA5Tz89RqS3KIhlLuGAPft+W1OOV3ACIimp0qKYpZiifPiiWkjIRyv4lqWYovFwugpO+Wds/SiBKi6L2SLIChMfj6erSb8VlYTLZfEKFTiYwjwoCH8mUmwkV8lgDa+uVpjCRKLh87tk4rACwaPAxYTCR6Pnz4XEJwhTXCJXmWEVs1eL/M1iExPWM3x7l9wXZTglN898IwrE/HyW9WKiGm7vHk+bFCfl5uViFltbZhkTZCmT3cRE6hkHUoK0taJsIjef0da6KN0UJGn6zyW3gQl9Mh6/fS5sV3ACwgo3y0UW3SAriqkECxFm8RoTkopHL6o1hX2loHBTEomColhMYcCX8lswgWCcuxdOM0wpM+JHs3lOmBcF/MsOTMSn+IvbWoTdcIkIUSDOKjmlckUV5P9JbcNEGt+P27tTHE4JXxal2LWowE1OZQ9gwrYTDZ9VN6KMkhFLN9fX6CWxnwWiIP9PbDsmooC/eLqPnBqoZDkpySURKsnGfGAKYx8frnrCubDMSdJyhl3hjQ9MJEyFbyMfUdffkOSUDXElUfKNCYPMrRfTNBGS89ebmF70dK8UpJUPqOrvSHIq/yamSgLAzI7CxF+cnjf9LqZpgCnA5EiAyZcEmHzJf4TpuJ7u/xZT4E0BplCAyacEmHxJgMmXBD2dLwm8yZcEmHxJgMmXBJh8SYDJlwQ9nS8JvMmXBJh8SYDJlyQrR3+zwv/uVwZ8/PQwLRWZWx6BKRpPPz16viIXvhZk+RhMoOD2/tSyw4RF+aY284mJ56Pxs+rjRsKEcr2Y12YzdA8Ppl1fZ4KCi2pNepWJ8LeLsPjn6mdWnF5G2NihHIIoJlu8zHSKXGdRwTKVCMV+JomCnd7ER9NPtVNrb0Sk3BLzSa6ypdiySJ1hS+IOCSjh2235JHJuuiAKlqnSVY4o2JFqEY+f3xdOrbWtJFGYZ7JZknizTBUinLwjv6n6GNneVqRCbEYVFMuxgsJJ0y05BPEoX60pp5ZhsSFcBDziG8kHFK+n85eNjuf59G1tb/4koiYKfooZki23gQkUfD8/1cymDZGU1HWRphUWN3Mv+Xg0/SwcTAiUlVT5G9GA6WAvci/T1ULi5KL2dmEThemiSGWFCfwgfP7oL+eZk5IVRC16MnkxFTh8fv95MnlR5EiqlPEmPMfT53fHJMDLidoy40l4hrB/9rwjY/OUhZUKlYyTPn8RTd/6dKS1cJJSmYlEAXvxC8aRxyr4m8RZVCJtrUIitcR+PVF93t0xyWSAyG5XIOVKqICtVoVdAYndV/4vEUmI5XEcKN8+J7eOh2W0nt2ZSMolkjclTHeLnEGT3HaWzK5/bisvxMpYPnG2K4f6w0UWavkv30QcSMrp6HcYMR454JOEVOlLMYMD9kgaR9XKcS4B5ZeLb1+wfOI7tOtjy7+DyEIqj2Pu4oJ40wXE2Gh869h6h0jJFEkCdzHxuALhCFJgABn0FykmKB/H8n/TkIqN5ObXJAl8jYnOIdJVXxWVhctphpZfYSIDq/jF864R+oYBSq7ilncxUQP8lX8PkXI3ZZEO/7KLDUzO4pvagcaHy1rI+DH7s7jwYiIKwrjS4kD5OTWAlPdiIuXPD5X/88JKuSlZVIJmlmNCTtzEhHb+ip/hA46tAZWTE5f5jKNALKWU1NUmJjLp47Gm231ibYBYFMv3SuoFJteAxw98wsImb5bu8Dpzg7OGiCi+wEQek8TRJbb0b9Kj4we4aCOG85bHV5iogvTT/ZaVFjJ0jCsDoDwbKrzC5JS/vRM+aqVGIUMWlcBtXC7K5GmRshWTa+irKHHzhUa0xXIqVkjLyG3FRB62XNzWXk7fUmgA+NGiVFmUSPntmLA8WRTzIaAu/12Up4vrQkKOlMrEyp2YyOqdNM7BvJZ+LV4vS2JekGRhMSehfhcm+sTl5eC9+m1RyhdLYICUKZEPdmEiYZIn5d8d1eVFQUpcl+C6UumAN1FLcYmv4FGQnwpSTsRHSMqXygFMpHw8fVb1POScLwtSMnsDPiYfxOT49MXz4eWg/7Gk7sAgginhCxOpaNXjDl/h5Ecx5RcTURCtrd2hes+FlCvEdNibVj71+N7udDwmGMpUPfEFMHG5ozCFd2Dy501EQe30MBWOxhTexMQej+kEvSnAFGByJcDkSwJMviTA5Es+AhMfYAoF3hRgCjDtlwCTLwkw+ZKgp/MlgTf5kgCTLwkw+ZIAky8JMPmSAJMvCQYEviR1/wZMT95vVqBKx2Nac37LVwbR9//KoJoIScd9ARUP33m96V4KFY7CFI+nCx5vmidCkaMwbZZ/H7n8kk/lFsuQT0w0D8f7beI0U8ndiJh16gcTvob3/PnR443VzDR3fxUL+cREyhfePePp8t+rK7E4S8o+vvUlOdwvFwN8zeJrdqcCRJjFIUw8XdeyoWCOr+nN5sGAw5ioAR/xWtrEnOQgZ6aFQvkAJp4/35JkSPPFxcxcyB3AxG9NnVPoK40XlYJyABPmSd1/VJKhrKRm2Wz2KlNeZGpow1ZMziurtyUYScINKLjKzspimcSMrZj4+K/09jc5S0KqDAZkMyUxk0MDtmHi6Uu3P3Q1AlT0+guusxBn05iSfIWJj/Pf9y1L4RKFaeYbKliUpqlE7XUaWJxPP+3JIscVCCIpX4byuddpYPz+8u8lciS3xOU7uHpn9iqp0MdiACmSKn+hy39m15tJhVjHs7sDL/SXIpdkCQOWn21iwvLHLWf4g8JJwtxNWvNgAl/nz2t+EtlZKZn/4ma9baSohm93pRO+MGDqlvdgIuU/Mp3wtci56bXoTXjGpKs7/x0LJ+XyRME64Rnz23znwK/KrzCR8n/dC9c5WYktF0Uam9K/+LOdaaW7FECYKy+ypJrKd8zAFY5SwEkKlv/mpM+T1v43OdJKWHCpGcF0Do70BhNZqZb/Qbzp7Oktq5tZcKkfdDHG06tEzb9KEhguuR0p6xz5VEruG8CQeC3vWt1M1T/uXjzAkU5VPrnXhq9FSqbyuIApco5zljfUQxZyZAkVe5H+axYP/MciC7H8ovivs+wwyp8fS4pVLqeZ4r/OskOYuQCp03WZbYLRfUpyyFeLWHGwcMR+FmzksnJNtsjwLmJF1J/Hp6RUpYxVRE7eJdHx+MXTnZ8lSmRRCjLKvtiOBnPy33/G/wcE+54ZXW+B29G8XGAPs/YD+1lw0mPFUSCWK+UX29EQBc/JE9wQwyOyVJj+ELPoRYvZXJASr1/+QUeR9zt2YmOlwvzHoujsI1JIJKavX/7hoj7V1scqc5xqXZFVJTmcs+zcjgb3F3s9TOKUGCrAl2KIxRRRUNn6jhSYOV7AOOk0W5+wuAJExXIlpdzQV8ls8ab1Y4Dwq8XkygwViOVpLjG/oq+S2eJNrgKYvp0kKWEhlioZEdoT5+P9Tfgaj4vNhwlKBhBlZrjAy33jzk5MRMP3i+rpdX1CuYbb0RzxNjA+/N27okUoxxKrt4EdxkRJ3b77yp3flGSF+92XpkkhaXl9BKaTfGnaf7IdzXGYTvEVfAEmPxJg8iUBJl8SYPIlASZfEmDyJQEmXxJg8iUBJl8SYPIlASZfEmDyJQEmXxJg8iUBJl8SYPIlASZfEmDyJQEmX/LfbEfz+TEdvx1NOPq73hRPKx9Q1d+R5FLhQsdsR8PH47c17/d0ywIn54/AhItiTm87mkxpful3OxryDtHqZmaYMpvdpGYzrLcPTHw8yj/VlFP70jckLH7+zBbFfE6SYwdyCHi6m8yLDAAlc0UUpKSDX47jV+tf/6rXOfsWKUbW3Vwt8rFlkdZyV0YKf7FtKYJMd8TIivlY6YruZ7MdE1AOV7euaTkFcXfEwH0/SqmEvBUTz8d37pDBSslpxlEwS4GzbcUEnnR74jtkuDtiiCQRLPUKE76Adu+SFDmRWroKMtNY6UW2HL6Y9VPskMFKBeIRmDi5EDe3o8H3GR/MSWIlYUqzCjEdbBMT2WntFJOatkriPp95uR0N7gF2/vqdz1uFrEdxFKwxRXG9xun1bPtELtyU8MXp6+1o+ONeCk8WxGQ9mxvF4+dV/wt/TkbYRGq6yNL0+YtfZEXpcXXE98xnsjSEo4LnD3tN+h8WTog529HcJd8WTxS6nw1b/fjtCf6oJHDmIf9GfiRd2vNponYggQQSSCCBBBJIIIEEEkgggQQSSCCBBOJLWFV9w2NFVVXd36r379ybtB0UXdM0/eBZrK4eeFCuWir9rbpnuvaq9IC1NI2cw1qb1+tMJiP1KJtR6ahHChn9Sb/r/cDq94yjlVn6frRqp84wzLBxABTX6PWt/YoeWsRatT+ZUDP1fq8Dv1i73zNBvWY2GWbQN9iQ3qtr3pJthmlrW1Tuv16dqYNWa8gwD6r3gy7DNI5VZtQnew1QTYbKRN13WojtM4Pu3jMaTJ2osBnXbm3ATPAPQKfDhbQhvVAL0JlM33PzsAQzOvZLHYpJg5v8sOkI3cHxmBrMYK8Hgom9ht3pgZ37FRlmZ6/D6WNqHDuBOjfJNSkmY8AMbBacjWk92Paohbi1JrO2in1gBi2mp8KhZVBR4agLlVfxEH/oDQP/1ek0VjcdMakWUBrRkuT8rqETTKrdsam5WqPTMOhHqm4brGVYrNFodMld0Rudjq2GOM1kBiOdgwM4u4v6QlZjhB85Jo6YJjqJNWDqrGOIBRp0uKrW0LqGBv9gNfilGxpLFDcaBilNz3WN5sCZyD+sMTN2mAOmfshoM2PkB42DeNAIHYd7YPquCfhJb0LJmuNms9luw/FojC2q24TD7rBt90GTio0WwgO7wtTT+o7ncqNmz8K207YRU78P92YCf2Abbbxrpgpamg2TMdVRsw+3ihnaeOvBO5hx31InA/ByOKmBHt/GCGHj0aDv3BRoc02bOIttcCHdMQTOGtc79UFnQi6u9ZojttMmdqDiJpa2HvDcuu06U50xWYqr+dBmeizF9ABNbUAqBg40wfur2raFTt5cuUUHvM2A6iLDZnuIau0QeBheDg/hB4Dvwx1l6n2odWeFqTl0WxzEBFRot+BTwMQMUA3EkQbUuk/OQqdmGFMHsK0e1GKgo33jCRy2rVGb8O/g2aQVW02m3jHBx3XXCZhxb2TQnghU1CdNjIANEkUaHTzmRtBwORPt6IJr1OGqE1aFttXDcx1ORou2Ofh7XYd4h76htZj20I2n+gRtaHTpTumgqOMEI2ilbUttMUPwCt2ytAcGg9wDM9ZdTFC9kWEZY8a01G6dnEgxoVCvBNPbFobBQQMxtW2r22Nahg6OqqnWAzSZLrR209BVqGNH1QGOBo29aavqCNtoh2nZnN5GS3SIDl2bGXQ4tTGcOM0F6YJ/DLEDAqNMVdXa0P4aCKmrgguYHJgwtEIEE9S/oVs9OISYNtLVbpPGFHSPse3U/4Gz6S0HTChOPLXH6Mbt3givDDHFbXWgAw77bgyFRtqGMLCJCS8CTtcBiqsTHUxORNzEhP0BWog1siwL7nZHGxNvBkxtHfsQRgMqdc2y7DbcdTC/ixfqw9ngtQ0b256trQdBamfodkCoDQyZOBSob/R0aE8jFryprbFwh7Bnh5hkAkY4t+c0HoxxxHrwPDtktYlJDqa200NqpJmCr2jU6RxMYJVpGOBDJpoEPtNGRZuYwBbW7ZJd7ojJxNtpvMbUoE2+b6/KmBrtYgBTj17Ussbuh3UVMBmh9dkNEq2g1XTX/S+rG6PeABxwZcjAsGmzgZItPNZCBBP4sFM5tb9SSc6DShAa7BACtmHXyS0HTIMOGDR0A71q2WabxIw1Jmy9AxBowxYdBRGvfIGJI02/1+/3TdPsupiGFsLDci6m8QamByhff+j3H0zT7m5gMimmNv2wwbqY6n3yByOkNibtweoWs4aNwFhokFij1oQYMrLccQTegxHTVjcwwWwAu3d6rml5MZHwiXUGB0RMPRbDAIZZCN06Fu0OsUtcYwL3GTTH4+YAokPImpBhFcEEMRZvuospRGrCcbpmsS4m6AxxRPDAoXnQarBhEkzQ+2HU7XSx9XOcakFQa5FA4MGkY2vjOJgb6CG30Y3I2Zqq2Yaq2pNVYO05wLC76aADE0NWwy3UWkefp42uToy3+yY0YGhta6M5p9HB5cdN+A9cSKcDAvQIdBAwnnSFtHZwXRrUOBwgwGxJg0hqAnzoqQ3DxlAIf7abHkwQ9XqGDl2t64Z0FA6YmQaHAcPsQlyjmAajro3xGC4ztC3NHLS1NaY6tVND/4QgM2rCNaC+HVUdAgCLBHwShPWOiwn7wJ7d7cLwYqgD+4mmG3US0pxAie21pRFMNISPNKMJnQ3YPulaxtAdvdsDcAY0vWVAnbsTbIzOKHxEhptg8cDsdg2T4LKc8QMejEl0g96ibTtRGe4Lwh1jF04GBBi20NRWnY7oCaYh3gpSY1APbk/P7+BkBY4HxKEB9GDYJgMC2q2gGzuYSAvHrhjUQDUHpgrjCXo2Vo/p9careIH9NDNukcCIDb1ZHzsDAorJwvEHtpYHdEuccDTH3nMHTj8GtewgLKbHUedk+pzGEEx4CbjveNsH0LbIpY2mM5LQJnU661VH9Z4N/6PAaIxr1JvQ1/R6cNFJz0albAPsHvRsd3hp1k0sqZv1eofl7F6z+WDjrNea1DujdmvYwfhgTBAUHFr9IYn1nbqJd7WHIyLLhPjTxrChPwzboM3o49loEKjDkedqcKeP6q3BoDlBq9UGhHIwxDMVBLVkvo1TXxwW95uDQR2cHKfMONK13YcBfYxAjfqE1h5MfVB1QEBQ9IkOo9+GsDU0NYKxTe8Tq7tTczhSVZ0KGe93YTqAhxx84FykaxjrGZPq/BkL4cShC9MElZ7PcZphrcvgIafSC9FSLCkCkxODzDPgyLLwL6xzNi3X9U4WdZhEddX1sUeN50ilYwiPpe65VAwMcuqqGDnS1xVRHaOoEeD6o0+VCetbIFQcmDx7BALF/scNn1eMQXP/A6m1wCjHP9JPJqzd9/toTR8d/7Dy0wh36CnwyzP/B68IKR2jkMxFAAAAAElFTkSuQmCC;" vertex="1" parent="1">
          <mxGeometry x="540" y="390" width="134" height="78.39" as="geometry" />
        </mxCell>
      </root>
    </mxGraphModel>
  </diagram>
</mxfile>
